<?xml version="1.0" encoding="iso-8859-1"?>
<!-- Generator: Adobe Illustrator 19.0.0, SVG Export Plug-In . SVG Version: 6.00 Build 0)  -->
<svg xmlns="http://www.w3.org/2000/svg" xmlns:xlink="http://www.w3.org/1999/xlink" version="1.1" id="Capa_1" x="0px" y="0px" viewBox="0 0 512 512" style="enable-background:new 0 0 512 512;" xml:space="preserve">
<polygon style="fill:#FEDC3D;" points="512,362 512,512 256,512 216,400.35 256,288.7 301.81,362 "/>
<polygon style="fill:#FFE985;" points="256,288.7 256,512 0,512 0,362 210.19,362 "/>
<polygon style="fill:#FFF2B8;" points="256,482 482,482 482,392 256,392 226,437 "/>
<rect x="30" y="392" style="fill:#FFFFFF;" width="226" height="90"/>
<rect x="351" y="422" width="30" height="30"/>
<rect x="281" y="422" width="30" height="30"/>
<rect x="201" y="422" width="30" height="30"/>
<rect x="131" y="422" width="30" height="30"/>
<g>
	<polygon style="fill:#02ACAB;" points="512,151 512,242 452,242 452,131  "/>
	<rect x="332" y="131" style="fill:#02ACAB;" width="60" height="111"/>
</g>
<path style="fill:#42C8C6;" d="M238.25,91C224.9,38.69,177.47,0,121,0l-20,30l20,30c33.69,0,61,27.31,61,61s-27.31,61-61,61l-30,30  l30,30c56.47,0,103.9-38.69,117.25-91H512V91H238.25z"/>
<path style="fill:#81E3E2;" d="M121,182v60C54.17,242,0,187.83,0,121S54.17,0,121,0v60c-33.69,0-61,27.31-61,61S87.31,182,121,182z"/>
<g>
</g>
<g>
</g>
<g>
</g>
<g>
</g>
<g>
</g>
<g>
</g>
<g>
</g>
<g>
</g>
<g>
</g>
<g>
</g>
<g>
</g>
<g>
</g>
<g>
</g>
<g>
</g>
<g>
</g>
</svg>
